<svg width="222" height="222" viewBox="0 0 222 222" fill="none" xmlns="http://www.w3.org/2000/svg">
<circle cx="111" cy="111" r="111" fill="black"/>
<path d="M142.246 175.64C147.046 174.84 151.646 173.373 156.046 171.24C160.579 169.107 164.646 166.373 168.246 163.04C168.513 162.907 169.046 162.44 169.846 161.64C170.646 160.84 171.179 160.573 171.446 160.84C171.713 161.107 171.646 161.507 171.246 162.04C170.846 162.573 170.513 163.04 170.246 163.44C167.579 167.307 164.046 170.507 159.646 173.04C155.379 175.44 150.913 177.373 146.246 178.84C142.379 179.907 138.246 180.307 133.846 180.04C129.446 179.64 125.313 178.507 121.446 176.64C120.246 176.107 119.513 175.707 119.246 175.44C118.979 175.04 118.979 174.773 119.246 174.64C119.513 174.507 119.913 174.44 120.446 174.44C121.113 174.44 121.713 174.507 122.246 174.64C123.713 174.907 125.379 175.173 127.246 175.44C129.246 175.573 131.179 175.707 133.046 175.84C135.046 175.84 136.846 175.84 138.446 175.84C140.046 175.84 141.313 175.773 142.246 175.64ZM115.446 116.84C114.779 121.507 114.446 126.107 114.446 130.64C114.446 135.04 114.713 139.24 115.246 143.24C115.913 147.107 116.846 150.573 118.046 153.64C119.379 156.707 120.979 159.24 122.846 161.24C124.979 163.373 127.579 165.04 130.646 166.24C133.846 167.307 137.246 167.84 140.846 167.84C144.579 167.84 148.446 167.307 152.446 166.24C156.579 165.173 160.646 163.507 164.646 161.24C165.446 160.707 165.979 160.573 166.246 160.84C166.513 161.107 166.379 161.44 165.846 161.84C165.446 162.107 165.046 162.373 164.646 162.64C161.179 165.307 157.513 167.44 153.646 169.04C149.779 170.64 145.846 171.64 141.846 172.04C137.979 172.44 134.179 172.24 130.446 171.44C126.846 170.507 123.579 168.84 120.646 166.44C117.846 164.04 115.579 161.173 113.846 157.84C112.113 154.373 110.779 150.64 109.846 146.64C109.046 142.507 108.579 138.24 108.446 133.84C108.313 129.44 108.446 125.107 108.846 120.84C109.379 114.04 110.713 107.173 112.846 100.24C114.979 93.3067 117.779 86.9067 121.246 81.04C124.846 75.1733 129.113 70.04 134.046 65.64C138.979 61.24 144.513 58.1733 150.646 56.44C153.713 55.64 156.846 55.3067 160.046 55.44C163.246 55.5733 166.179 56.1733 168.846 57.24C171.646 58.3067 174.046 59.9067 176.046 62.04C178.046 64.04 179.379 66.5067 180.046 69.44C180.713 72.64 180.446 75.7733 179.246 78.84C178.046 81.7733 176.379 84.3733 174.246 86.64C172.113 88.7733 169.713 90.3067 167.046 91.24C164.379 92.1733 161.846 92.1733 159.446 91.24C159.313 91.24 159.179 91.04 159.046 90.64C159.046 90.24 159.313 90.1067 159.846 90.24C161.446 90.5067 163.246 90.1733 165.246 89.24C167.379 88.1733 169.246 86.7733 170.846 85.04C172.579 83.3067 173.913 81.24 174.846 78.84C175.913 76.44 176.246 73.9733 175.846 71.44C175.446 69.5733 174.579 67.9733 173.246 66.64C172.046 65.1733 170.446 64.04 168.446 63.24C166.446 62.3067 164.179 61.7067 161.646 61.44C159.246 61.1733 156.713 61.3067 154.046 61.84C148.979 62.7733 144.246 65.04 139.846 68.64C135.579 72.1067 131.779 76.3733 128.446 81.44C125.113 86.5067 122.313 92.1733 120.046 98.44C117.779 104.573 116.246 110.707 115.446 116.84ZM131.246 183.04C132.713 183.173 134.179 183.24 135.646 183.24C137.246 183.24 138.046 183.44 138.046 183.84C138.046 183.973 137.779 184.04 137.246 184.04C136.713 184.173 136.113 184.24 135.446 184.24C134.913 184.24 134.313 184.24 133.646 184.24C132.979 184.24 132.579 184.24 132.446 184.24C128.313 184.24 124.246 183.64 120.246 182.44C116.246 181.24 112.513 179.573 109.046 177.44C105.713 175.173 102.713 172.44 100.046 169.24C97.3793 166.04 95.3793 162.373 94.046 158.24C91.3793 150.107 89.846 142.173 89.446 134.44C89.046 126.707 89.3793 119.107 90.446 111.64C90.9793 107.373 91.9793 102.573 93.446 97.24C95.046 91.7733 97.1127 86.24 99.646 80.64C102.313 75.04 105.579 69.5067 109.446 64.04C113.446 58.5733 118.179 53.5733 123.646 49.04C129.379 44.24 135.713 41.04 142.646 39.44C149.713 37.84 156.446 37.5733 162.846 38.64C169.246 39.7067 174.913 41.9733 179.846 45.44C184.779 48.7733 188.046 53.04 189.646 58.24C189.779 58.5067 189.913 59.1067 190.046 60.04C190.179 60.84 190.113 61.3733 189.846 61.64C189.713 61.7733 189.513 61.44 189.246 60.64C188.979 59.84 188.713 59.3067 188.446 59.04C182.846 51.44 176.513 46.64 169.446 44.64C162.379 42.5067 155.379 42.3067 148.446 44.04C141.513 45.64 134.979 48.7067 128.846 53.24C122.713 57.64 117.846 62.5733 114.246 68.04C107.979 77.5067 103.179 87.5733 99.846 98.24C96.646 108.907 95.1793 119.907 95.446 131.24C95.5793 136.44 96.1127 141.907 97.046 147.64C98.1127 153.373 100.113 158.84 103.046 164.04C105.979 169.373 109.979 173.84 115.046 177.44C120.246 180.907 125.646 182.773 131.246 183.04ZM102.446 107.84C103.513 100.773 105.179 93.9067 107.446 87.24C109.846 80.5733 112.913 74.5067 116.646 69.04C120.513 63.44 125.246 58.64 130.846 54.64C136.446 50.64 143.046 47.84 150.646 46.24C153.313 45.7067 156.313 45.5067 159.646 45.64C162.979 45.64 166.313 46.24 169.646 47.44C172.979 48.5067 176.046 50.1733 178.846 52.44C181.779 54.7067 184.179 57.84 186.046 61.84C187.779 65.7067 188.379 69.5067 187.846 73.24C187.313 76.9733 186.179 80.3733 184.446 83.44C182.713 86.3733 180.579 88.84 178.046 90.84C175.513 92.84 173.046 93.9733 170.646 94.24C169.179 94.5067 168.379 94.5067 168.246 94.24C168.113 93.84 168.846 93.3733 170.446 92.84C172.979 92.04 175.513 90.04 178.046 86.84C180.713 83.5067 182.313 79.3067 182.846 74.24C183.113 71.7067 182.779 69.24 181.846 66.84C180.913 64.3067 179.579 62.1067 177.846 60.24C176.113 58.3733 174.046 56.7733 171.646 55.44C169.246 54.1067 166.713 53.24 164.046 52.84C158.313 52.04 153.046 52.44 148.246 54.04C143.446 55.64 139.246 57.7067 135.646 60.24C132.179 62.64 129.313 65.04 127.046 67.44C124.913 69.84 123.579 71.44 123.046 72.24C118.913 77.44 115.313 83.1067 112.246 89.24C109.179 95.24 106.646 101.573 104.646 108.24C104.646 108.373 104.513 108.84 104.246 109.64C104.113 110.44 103.913 111.307 103.646 112.24C103.513 113.04 103.313 113.84 103.046 114.64C102.779 115.307 102.579 115.64 102.446 115.64C102.179 115.64 102.046 115.24 102.046 114.44C102.046 113.64 102.046 112.84 102.046 112.04C102.046 111.107 102.113 110.24 102.246 109.44C102.379 108.64 102.446 108.107 102.446 107.84Z" fill="#20FFA2"/>
<path d="M37.8466 59.9102C38.5534 57.3389 39.8804 54.5232 41.8276 51.4632C43.6463 48.3679 45.9312 46.092 48.6822 44.6357C50.3566 43.5749 50.6892 43.8737 49.6803 45.5323C48.9284 47.2615 48.0304 49.0197 46.986 50.8069C45.8485 52.4301 44.9794 54.3345 44.3786 56.5201C42.0592 64.4559 42.7832 70.8774 46.5507 75.7847C50.1897 80.6566 55.5383 84.3391 62.5966 86.8323C67.5047 88.5961 72.5364 89.9099 77.6918 90.7738C82.754 91.4738 87.8338 92.1094 92.9313 92.6808C98.0288 93.2522 103.091 93.9522 108.118 94.7807C113.18 95.4807 118.147 96.7769 123.02 98.6693C124.399 99.1865 125.182 99.6091 125.368 99.9369C125.59 100.136 125.473 100.311 125.016 100.462C124.595 100.485 124.028 100.536 123.315 100.617C122.508 100.533 121.83 100.485 121.28 100.473C115.925 99.8305 110.518 99.3813 105.057 99.1249C99.4679 98.8332 93.8963 98.4772 88.3424 98.0569C82.7886 97.6366 77.2877 97.0235 71.8398 96.2175C66.4273 95.283 61.0918 93.8165 55.8334 91.8181C52.4682 90.4783 49.4837 88.7592 46.8801 86.6608C44.1479 84.5271 41.9716 82.1314 40.3514 79.4736C38.6379 76.6519 37.5448 73.5859 37.0718 70.2755C36.5989 66.9651 36.8572 63.51 37.8466 59.9102ZM53.8677 101.234C50.5025 99.8941 47.2785 98.04 44.196 95.6717C40.9849 93.2681 38.2831 90.5205 36.0907 87.4289C33.8051 84.1734 32.286 80.6446 31.5334 76.8425C30.6876 72.8765 30.8477 68.7722 32.0138 64.5295C32.0491 64.401 32.2018 64.0972 32.4717 63.6183C32.6484 62.9755 32.854 62.4789 33.0886 62.1285C33.3585 61.6496 33.5401 61.4921 33.6333 61.656C33.7618 61.6913 33.7667 62.1766 33.6479 63.1119C33.3367 66.7599 33.6103 70.2921 34.469 73.7084C35.3276 77.1248 36.6779 80.2615 38.5199 83.1185C40.3619 85.9755 42.6314 88.5352 45.3282 90.7975C47.9319 92.8959 50.8054 94.5154 53.9489 95.6559C59.9787 97.8663 66.2848 99.323 72.8672 100.026C79.3211 100.694 85.8102 101.233 92.3347 101.643C98.8946 101.925 105.448 102.482 111.995 103.313C118.449 103.981 124.691 105.42 130.721 107.63C133.093 108.559 135.505 109.844 137.957 111.486C140.41 113.128 142.581 115.039 144.471 117.218C146.397 119.268 147.895 121.616 148.966 124.261C149.908 126.87 150.201 129.578 149.844 132.384C149.536 134.512 149.224 135.394 148.909 135.031C148.501 134.504 148.134 133.573 147.81 132.239C146.51 126.904 144.355 122.924 141.343 120.299C138.366 117.545 134.378 115.204 129.376 113.276C123.604 111.136 117.49 109.733 111.037 109.065C104.618 108.269 98.1465 107.665 91.622 107.255C85.0975 106.844 78.6726 106.323 72.3473 105.691C65.9288 104.895 59.769 103.409 53.8677 101.234ZM159.275 135.805C160.759 130.406 161.049 125.577 160.145 121.318C159.113 117.024 157.325 113.214 154.783 109.888C152.111 106.527 148.831 103.62 144.942 101.168C140.924 98.6813 136.654 96.6088 132.131 94.951C126.487 92.8466 120.667 91.385 114.669 90.5662C108.672 89.7475 102.703 89.075 96.7635 88.5487C90.7307 87.8585 84.7155 87.104 78.7181 86.2853C72.7206 85.4665 66.8355 83.9873 61.0629 81.8475C55.2902 79.7078 51.0923 76.6181 48.4691 72.5784C45.8812 68.4102 45.453 63.1762 47.1845 56.8765C47.7853 54.6909 48.9307 52.0327 50.6208 48.9021C52.3463 45.6428 54.2165 43.1147 56.2315 41.3178C58.4103 39.4277 58.8073 39.7442 57.4224 42.2674C56.6127 43.7042 55.615 45.5733 54.4293 47.8747C53.2436 50.176 52.4741 51.9696 52.1208 53.2552C50.7426 58.2693 50.6517 62.8766 51.8479 67.0772C53.044 71.2777 56.3356 74.3949 61.7226 76.4286C67.4599 78.6969 73.4093 80.1938 79.5707 80.9194C85.6035 81.6095 91.7359 82.1888 97.9679 82.6572C104.2 83.1256 110.379 83.7869 116.505 84.641C122.666 85.3665 128.633 86.7991 134.406 88.9389C139.186 90.6673 143.678 92.939 147.882 95.754C152.086 98.5689 155.664 101.903 158.615 105.756C161.566 109.609 163.615 113.975 164.763 118.854C165.818 123.569 165.568 128.755 164.013 134.412C163.589 135.954 162.785 137.876 161.599 140.178C160.413 142.479 159.099 144.745 157.656 146.976C156.085 149.171 154.42 151.203 152.662 153.07C150.811 154.774 149.037 155.946 147.341 156.586C145.737 157.389 145.521 156.915 146.694 155.164C148.452 153.296 150.591 151.049 153.11 148.423C155.665 145.668 157.72 141.462 159.275 135.805ZM152.207 135.107C153.09 131.893 153.389 128.795 153.102 125.812C152.816 122.83 152.226 119.695 151.332 116.407L151.91 116.566C153.067 116.884 154.048 117.845 154.851 119.448C155.562 120.888 156.12 122.632 156.525 124.679C156.93 126.726 157.072 128.978 156.95 131.433C156.864 133.76 156.503 136.081 155.866 138.395C155.619 139.295 155.155 140.481 154.474 141.953C153.664 143.39 152.772 144.873 151.799 146.403C150.732 147.769 149.618 149.053 148.458 150.256C147.298 151.458 146.133 152.175 144.963 152.406C143.032 153.396 142.072 153.617 142.085 153.067C141.969 152.482 142.357 151.828 143.247 151.105C144.455 149.224 145.991 147.158 147.855 144.904C149.625 142.487 151.076 139.222 152.207 135.107Z" fill="#20FFA2"/>
</svg>
