<svg width="160" height="147" viewBox="0 0 160 147" fill="none" xmlns="http://www.w3.org/2000/svg">
<path d="M111.246 137.64C116.046 136.84 120.646 135.373 125.046 133.24C129.579 131.107 133.646 128.373 137.246 125.04C137.513 124.907 138.046 124.44 138.846 123.64C139.646 122.84 140.179 122.573 140.446 122.84C140.713 123.107 140.646 123.507 140.246 124.04C139.846 124.573 139.513 125.04 139.246 125.44C136.579 129.307 133.046 132.507 128.646 135.04C124.379 137.44 119.913 139.373 115.246 140.84C111.379 141.907 107.246 142.307 102.846 142.04C98.446 141.64 94.3127 140.507 90.446 138.64C89.246 138.107 88.5127 137.707 88.246 137.44C87.9793 137.04 87.9793 136.773 88.246 136.64C88.5127 136.507 88.9127 136.44 89.446 136.44C90.1127 136.44 90.7127 136.507 91.246 136.64C92.7127 136.907 94.3793 137.173 96.246 137.44C98.246 137.573 100.179 137.707 102.046 137.84C104.046 137.84 105.846 137.84 107.446 137.84C109.046 137.84 110.313 137.773 111.246 137.64ZM84.446 78.84C83.7793 83.5067 83.446 88.1067 83.446 92.64C83.446 97.04 83.7127 101.24 84.246 105.24C84.9127 109.107 85.846 112.573 87.046 115.64C88.3793 118.707 89.9793 121.24 91.846 123.24C93.9793 125.373 96.5793 127.04 99.646 128.24C102.846 129.307 106.246 129.84 109.846 129.84C113.579 129.84 117.446 129.307 121.446 128.24C125.579 127.173 129.646 125.507 133.646 123.24C134.446 122.707 134.979 122.573 135.246 122.84C135.513 123.107 135.379 123.44 134.846 123.84C134.446 124.107 134.046 124.373 133.646 124.64C130.179 127.307 126.513 129.44 122.646 131.04C118.779 132.64 114.846 133.64 110.846 134.04C106.979 134.44 103.179 134.24 99.446 133.44C95.846 132.507 92.5793 130.84 89.646 128.44C86.846 126.04 84.5793 123.173 82.846 119.84C81.1127 116.373 79.7793 112.64 78.846 108.64C78.046 104.507 77.5793 100.24 77.446 95.84C77.3127 91.44 77.446 87.1067 77.846 82.84C78.3793 76.04 79.7127 69.1733 81.846 62.24C83.9793 55.3067 86.7793 48.9067 90.246 43.04C93.846 37.1733 98.1127 32.04 103.046 27.64C107.979 23.24 113.513 20.1733 119.646 18.44C122.713 17.64 125.846 17.3067 129.046 17.44C132.246 17.5733 135.179 18.1733 137.846 19.24C140.646 20.3067 143.046 21.9067 145.046 24.04C147.046 26.04 148.379 28.5067 149.046 31.44C149.713 34.64 149.446 37.7733 148.246 40.84C147.046 43.7733 145.379 46.3733 143.246 48.64C141.113 50.7733 138.713 52.3067 136.046 53.24C133.379 54.1733 130.846 54.1733 128.446 53.24C128.313 53.24 128.179 53.04 128.046 52.64C128.046 52.24 128.313 52.1067 128.846 52.24C130.446 52.5067 132.246 52.1733 134.246 51.24C136.379 50.1733 138.246 48.7733 139.846 47.04C141.579 45.3067 142.913 43.24 143.846 40.84C144.913 38.44 145.246 35.9733 144.846 33.44C144.446 31.5733 143.579 29.9733 142.246 28.64C141.046 27.1733 139.446 26.04 137.446 25.24C135.446 24.3067 133.179 23.7067 130.646 23.44C128.246 23.1733 125.713 23.3067 123.046 23.84C117.979 24.7733 113.246 27.04 108.846 30.64C104.579 34.1067 100.779 38.3733 97.446 43.44C94.1127 48.5067 91.3127 54.1733 89.046 60.44C86.7794 66.5733 85.246 72.7067 84.446 78.84ZM100.246 145.04C101.713 145.173 103.179 145.24 104.646 145.24C106.246 145.24 107.046 145.44 107.046 145.84C107.046 145.973 106.779 146.04 106.246 146.04C105.713 146.173 105.113 146.24 104.446 146.24C103.913 146.24 103.313 146.24 102.646 146.24C101.979 146.24 101.579 146.24 101.446 146.24C97.3127 146.24 93.246 145.64 89.246 144.44C85.246 143.24 81.5127 141.573 78.046 139.44C74.7127 137.173 71.7127 134.44 69.046 131.24C66.3793 128.04 64.3793 124.373 63.046 120.24C60.3793 112.107 58.846 104.173 58.446 96.44C58.046 88.7067 58.3793 81.1067 59.446 73.64C59.9793 69.3733 60.9793 64.5733 62.446 59.24C64.046 53.7733 66.1127 48.24 68.646 42.64C71.3127 37.04 74.5793 31.5067 78.446 26.04C82.446 20.5733 87.1793 15.5733 92.646 11.04C98.3793 6.24 104.713 3.04 111.646 1.44C118.713 -0.159998 125.446 -0.426665 131.846 0.639996C138.246 1.70666 143.913 3.97333 148.846 7.44C153.779 10.7733 157.046 15.04 158.646 20.24C158.779 20.5067 158.913 21.1067 159.046 22.04C159.179 22.84 159.113 23.3733 158.846 23.64C158.713 23.7733 158.513 23.44 158.246 22.64C157.979 21.84 157.713 21.3067 157.446 21.04C151.846 13.44 145.513 8.64 138.446 6.64C131.379 4.50666 124.379 4.30666 117.446 6.04C110.513 7.64 103.979 10.7067 97.846 15.24C91.7127 19.64 86.846 24.5733 83.246 30.04C76.9793 39.5067 72.1793 49.5733 68.846 60.24C65.646 70.9067 64.1793 81.9067 64.446 93.24C64.5793 98.44 65.1127 103.907 66.046 109.64C67.1127 115.373 69.1127 120.84 72.046 126.04C74.9793 131.373 78.9793 135.84 84.046 139.44C89.246 142.907 94.646 144.773 100.246 145.04ZM71.446 69.84C72.5127 62.7733 74.1793 55.9067 76.446 49.24C78.846 42.5733 81.9127 36.5067 85.646 31.04C89.5127 25.44 94.246 20.64 99.846 16.64C105.446 12.64 112.046 9.84 119.646 8.24001C122.313 7.70667 125.313 7.50667 128.646 7.64C131.979 7.64 135.313 8.24 138.646 9.44C141.979 10.5067 145.046 12.1733 147.846 14.44C150.779 16.7067 153.179 19.84 155.046 23.84C156.779 27.7067 157.379 31.5067 156.846 35.24C156.313 38.9733 155.179 42.3733 153.446 45.44C151.713 48.3733 149.579 50.84 147.046 52.84C144.513 54.84 142.046 55.9733 139.646 56.24C138.179 56.5067 137.379 56.5067 137.246 56.24C137.113 55.84 137.846 55.3733 139.446 54.84C141.979 54.04 144.513 52.04 147.046 48.84C149.713 45.5067 151.313 41.3067 151.846 36.24C152.113 33.7067 151.779 31.24 150.846 28.84C149.913 26.3067 148.579 24.1067 146.846 22.24C145.113 20.3733 143.046 18.7733 140.646 17.44C138.246 16.1067 135.713 15.24 133.046 14.84C127.313 14.04 122.046 14.44 117.246 16.04C112.446 17.64 108.246 19.7067 104.646 22.24C101.179 24.64 98.3127 27.04 96.046 29.44C93.9127 31.84 92.5793 33.44 92.046 34.24C87.9127 39.44 84.3127 45.1067 81.246 51.24C78.1793 57.24 75.646 63.5733 73.646 70.24C73.646 70.3733 73.5127 70.84 73.246 71.64C73.1127 72.44 72.9127 73.3067 72.646 74.24C72.5127 75.04 72.3127 75.84 72.046 76.64C71.7794 77.3067 71.5793 77.64 71.446 77.64C71.1793 77.64 71.046 77.24 71.046 76.44C71.046 75.64 71.046 74.84 71.046 74.04C71.046 73.1067 71.1127 72.24 71.246 71.44C71.3793 70.64 71.446 70.1067 71.446 69.84Z" fill="#20FFA2"/>
<path d="M6.84662 21.9102C7.55335 19.3389 8.88035 16.5232 10.8276 13.4632C12.6463 10.3679 14.9312 8.09203 17.6822 6.63571C19.3566 5.57485 19.6892 5.87371 18.6803 7.53228C17.9284 9.26153 17.0304 11.0197 15.986 12.8069C14.8485 14.4301 13.9794 16.3345 13.3786 18.5201C11.0592 26.4559 11.7832 32.8774 15.5507 37.7847C19.1897 42.6566 24.5383 46.3391 31.5966 48.8323C36.5047 50.5961 41.5364 51.9099 46.6918 52.7738C51.754 53.4738 56.8338 54.1094 61.9313 54.6808C67.0288 55.2522 72.091 55.9522 77.1179 56.7807C82.18 57.4807 87.1475 58.7769 92.0202 60.6693C93.3991 61.1865 94.1817 61.6091 94.3682 61.9369C94.59 62.1361 94.4727 62.3113 94.0163 62.4624C93.5953 62.485 93.028 62.5365 92.3145 62.6169C91.5078 62.5335 90.8296 62.4853 90.28 62.4726C84.9254 61.8305 79.5177 61.3813 74.0571 61.1249C68.4679 60.8332 62.8963 60.4772 57.3424 60.0569C51.7886 59.6366 46.2877 59.0235 40.8398 58.2175C35.4273 57.283 30.0918 55.8165 24.8334 53.8181C21.4682 52.4783 18.4837 50.7592 15.8801 48.6608C13.1479 46.5271 10.9716 44.1314 9.35141 41.4736C7.63795 38.6519 6.54476 35.5859 6.07185 32.2755C5.59894 28.9651 5.85719 25.51 6.84662 21.9102ZM22.8677 63.2339C19.5025 61.8941 16.2785 60.04 13.196 57.6717C9.98485 55.2681 7.28309 52.5205 5.09071 49.4289C2.80509 46.1734 1.28599 42.6446 0.533386 38.8425C-0.312442 34.8765 -0.152303 30.7722 1.01381 26.5295C1.04914 26.401 1.20177 26.0972 1.47168 25.6183C1.64836 24.9755 1.85399 24.4789 2.08856 24.1285C2.35848 23.6496 2.54005 23.4921 2.63328 23.656C2.76184 23.6913 2.76673 24.1766 2.64794 25.1119C2.33667 28.7599 2.61035 32.2921 3.46896 35.7084C4.32757 39.1248 5.67789 42.2615 7.51991 45.1185C9.36193 47.9755 11.6314 50.5352 14.3282 52.7975C16.9319 54.8959 19.8054 56.5154 22.9489 57.6559C28.9787 59.8663 35.2848 61.323 41.8672 62.026C48.3211 62.6936 54.8102 63.2327 61.3347 63.6432C67.8946 63.9251 74.4481 64.4819 80.9951 65.3134C87.449 65.981 93.6908 67.4201 99.7206 69.6305C102.093 70.559 104.505 71.8443 106.957 73.4863C109.41 75.1283 111.581 77.0388 113.471 79.2176C115.397 81.2679 116.895 83.6155 117.966 86.2605C118.908 88.8702 119.201 91.578 118.844 94.3839C118.536 96.5116 118.224 97.3939 117.909 97.0307C117.501 96.5037 117.134 95.5733 116.81 94.2395C115.51 88.9044 113.355 84.9241 110.343 82.2987C107.366 79.5447 103.378 77.2038 98.3763 75.2761C92.6036 73.1364 86.4904 71.7327 80.0365 71.065C73.618 70.2688 67.1465 69.6655 60.622 69.255C54.0975 68.8445 47.6726 68.3231 41.3473 67.6908C34.9288 66.8946 28.769 65.4089 22.8677 63.2339ZM128.275 97.8055C129.759 92.4057 130.049 87.5766 129.145 83.3182C128.113 79.0244 126.325 75.2144 123.783 71.8883C121.111 68.5268 117.831 65.6201 113.942 63.1684C109.924 60.6813 105.654 58.6088 101.131 56.951C95.4873 54.8466 89.6665 53.385 83.6691 52.5662C77.6716 51.7475 71.7031 51.075 65.7635 50.5487C59.7307 49.8585 53.7155 49.104 47.7181 48.2853C41.7206 47.4665 35.8355 45.9873 30.0629 43.8475C24.2902 41.7078 20.0923 38.6181 17.4691 34.5784C14.8812 30.4102 14.453 25.1762 16.1845 18.8765C16.7853 16.6909 17.9307 14.0327 19.6208 10.9021C21.3463 7.6428 23.2165 5.11472 25.2315 3.31781C27.4103 1.42767 27.8073 1.74419 26.4224 4.26739C25.6127 5.70416 24.615 7.57325 23.4293 9.87465C22.2436 12.176 21.4741 13.9696 21.1208 15.2552C19.7426 20.2693 19.6517 24.8766 20.8479 29.0772C22.044 33.2777 25.3356 36.3949 30.7226 38.4286C36.4599 40.6969 42.4093 42.1938 48.5707 42.9194C54.6035 43.6095 60.7359 44.1888 66.9679 44.6572C73.2 45.1256 79.379 45.7869 85.5051 46.641C91.6664 47.3665 97.6335 48.7991 103.406 50.9389C108.186 52.6673 112.677 54.939 116.882 57.754C121.086 60.5689 124.664 63.9029 127.615 67.7561C130.566 71.6093 132.615 75.9753 133.763 80.854C134.818 85.5688 134.568 90.7547 133.013 96.4116C132.589 97.9543 131.785 99.8764 130.599 102.178C129.413 104.479 128.099 106.745 126.656 108.976C125.085 111.171 123.42 113.203 121.662 115.07C119.811 116.774 118.037 117.946 116.341 118.586C114.737 119.389 114.521 118.915 115.694 117.164C117.452 115.296 119.591 113.049 122.11 110.423C124.665 107.668 126.72 103.462 128.275 97.8055ZM121.207 97.1074C122.09 93.8933 122.389 90.7949 122.102 87.8123C121.816 84.8298 121.226 81.6946 120.332 78.4068L120.91 78.5658C122.067 78.8838 123.048 79.8447 123.851 81.4483C124.562 82.8881 125.12 84.6317 125.525 86.6789C125.93 88.7262 126.072 90.9776 125.95 93.4331C125.864 95.7601 125.503 98.0807 124.866 100.395C124.619 101.295 124.155 102.481 123.474 103.953C122.664 105.39 121.772 106.873 120.799 108.403C119.732 109.769 118.618 111.053 117.458 112.256C116.298 113.458 115.133 114.175 113.963 114.406C112.032 115.396 111.072 115.617 111.085 115.067C110.969 114.482 111.357 113.828 112.247 113.105C113.455 111.224 114.991 109.158 116.855 106.904C118.625 104.487 120.076 101.222 121.207 97.1074Z" fill="#20FFA2"/>
</svg>
