<svg width="55" height="62" viewBox="0 0 55 62" fill="none" xmlns="http://www.w3.org/2000/svg">
<path fill-rule="evenodd" clip-rule="evenodd" d="M6.12441 43.2375L15.6117 52.8766L27.1809 61.0068L38.75 52.8766L48.2373 43.2375L53.4923 20.2116L47.1687 10.6329L38.8972 1.91633L27.4812 0.816135L15.4551 1.91863L6.89303 10.6326L0.867203 20.2016L6.12441 43.2375ZM0 20.0538L5.3835 43.6431L15.0843 53.4991L27.1809 62L39.2775 53.4991L48.9782 43.6431L54.3618 20.0538L47.8074 10.1255L39.2775 1.13663L27.4831 -3.05176e-05L15.0843 1.13663L6.25207 10.1255L0 20.0538Z" fill="#080B10"/>
<path fill-rule="evenodd" clip-rule="evenodd" d="M24.1025 48.1586L20.4654 43.5786L26.6276 41.1558L32.9927 43.6583L29.6547 48.1586H24.1025ZM25.9937 40.5319L23.3176 37.9857C23.0308 37.7128 23.2638 37.2327 23.6556 37.2892L26.5213 37.7023C26.5598 37.7079 26.5988 37.7079 26.6373 37.7023L29.503 37.2892C29.8948 37.2327 30.1278 37.7128 29.841 37.9857L27.1932 40.505L33.4941 42.9823L33.5 42.9744L37.8084 36.9647L35.5518 36.0528L33.7766 31.8882L36.1441 35.4468L38.2783 36.3093L38.5 36L35 30L31.5 31.5H26H19.9856L18 30L15 36.0018L15.0907 36.1286L16.8132 35.4282L19.1995 31.8513L17.4055 36.0341L15.5598 36.7847L19.9408 42.9117L25.9937 40.5319Z" fill="#080B10"/>
<path fill-rule="evenodd" clip-rule="evenodd" d="M26.7469 36.8834L11 25.3445L15 16L21.5426 18.0236L26.7469 22.0236L32.0426 18.0236L38.6043 16L42.0406 25.3445L26.7469 36.8834ZM30.2752 27.4827L33.944 25.8507L36.411 26.4493L34.4422 28.8091L29.8403 29.5841L30.2752 27.4827ZM19.0724 25.8896L22.8059 27.3675L23.3279 29.4489L18.6977 28.8662L16.6324 26.5904L19.0724 25.8896Z" fill="#080B10"/>
</svg>
